<!--?xml version="1.0" standalone="no"?-->
              <svg id="sw-js-blob-svg" viewBox="0 0 100 100" xmlns="http://www.w3.org/2000/svg" version="1.1">
                    <defs> 
                        <linearGradient id="sw-gradient" x1="0" x2="1" y1="1" y2="0">
                            <stop id="stop1" stop-color="rgba(248, 117, 55, 1)" offset="0%"></stop>
                            <stop id="stop2" stop-color="rgba(251, 168, 31, 1)" offset="100%"></stop>
                        </linearGradient>
                    </defs>
                <path fill="url(#sw-gradient)" d="M25.5,-33.9C32.2,-30.3,36.2,-21.6,37,-13.4C37.9,-5.1,35.7,2.9,30.8,7.5C25.9,12.2,18.3,13.5,12.8,17.6C7.2,21.6,3.6,28.4,-0.5,29.1C-4.6,29.7,-9.2,24.4,-13.2,19.8C-17.2,15.3,-20.7,11.6,-24,6.6C-27.4,1.6,-30.6,-4.7,-29.6,-10.3C-28.7,-15.8,-23.7,-20.7,-18,-24.8C-12.4,-28.8,-6.2,-32,1.6,-34.2C9.4,-36.4,18.8,-37.6,25.5,-33.9Z" width="100%" height="100%" transform="translate(50 50)" stroke-width="0" style="transition: all 0.3s ease 0s;"></path>
              </svg>