<svg width="205" height="32" viewBox="0 0 205 32" fill="none" xmlns="http://www.w3.org/2000/svg">
<path d="M11.57 25.42C9.91 25.42 8.37 25.16 6.95 24.64C5.55 24.1 4.33 23.34 3.29 22.36C2.27 21.38 1.47 20.23 0.89 18.91C0.31 17.57 0.0200001 16.1 0.0200001 14.5C0.0200001 12.9 0.31 11.44 0.89 10.12C1.47 8.78 2.27 7.62 3.29 6.64C4.33 5.66 5.55 4.91 6.95 4.39C8.37 3.85 9.91 3.58 11.57 3.58C13.51 3.58 15.24 3.92 16.76 4.6C18.3 5.28 19.58 6.26 20.6 7.54L16.82 10.96C16.14 10.16 15.39 9.55 14.57 9.13C13.77 8.71 12.87 8.5 11.87 8.5C11.01 8.5 10.22 8.64 9.5 8.92C8.78 9.2 8.16 9.61 7.64 10.15C7.14 10.67 6.74 11.3 6.44 12.04C6.16 12.78 6.02 13.6 6.02 14.5C6.02 15.4 6.16 16.22 6.44 16.96C6.74 17.7 7.14 18.34 7.64 18.88C8.16 19.4 8.78 19.8 9.5 20.08C10.22 20.36 11.01 20.5 11.87 20.5C12.87 20.5 13.77 20.29 14.57 19.87C15.39 19.45 16.14 18.84 16.82 18.04L20.6 21.46C19.58 22.72 18.3 23.7 16.76 24.4C15.24 25.08 13.51 25.42 11.57 25.42ZM22.9784 25V8.74H28.4084V13.48L27.5984 12.13C28.0784 10.91 28.8584 10 29.9384 9.4C31.0184 8.78 32.3284 8.47 33.8684 8.47V13.6C33.6084 13.56 33.3784 13.54 33.1784 13.54C32.9984 13.52 32.7984 13.51 32.5784 13.51C31.4184 13.51 30.4784 13.83 29.7584 14.47C29.0384 15.09 28.6784 16.11 28.6784 17.53V25H22.9784ZM39.5087 31.09C38.6487 31.09 37.7787 30.95 36.8987 30.67C36.0387 30.41 35.3387 30.06 34.7987 29.62L36.7787 25.63C37.1187 25.93 37.5087 26.16 37.9487 26.32C38.4087 26.5 38.8587 26.59 39.2987 26.59C39.9187 26.59 40.4087 26.45 40.7687 26.17C41.1287 25.89 41.4387 25.45 41.6987 24.85L42.4487 22.96L42.8987 22.39L48.4187 8.74H53.8487L46.8287 25.66C46.2687 27.06 45.6187 28.15 44.8787 28.93C44.1587 29.73 43.3487 30.29 42.4487 30.61C41.5687 30.93 40.5887 31.09 39.5087 31.09ZM41.7287 25.69L34.5587 8.74H40.4087L45.6887 21.88L41.7287 25.69ZM65.5522 25.27C64.1722 25.27 62.9922 24.97 62.0122 24.37C61.0322 23.75 60.2822 22.83 59.7622 21.61C59.2622 20.37 59.0122 18.79 59.0122 16.87C59.0122 14.93 59.2522 13.35 59.7322 12.13C60.2122 10.89 60.9322 9.97 61.8922 9.37C62.8722 8.77 64.0922 8.47 65.5522 8.47C67.0322 8.47 68.3722 8.82 69.5722 9.52C70.7922 10.2 71.7522 11.17 72.4522 12.43C73.1722 13.67 73.5322 15.15 73.5322 16.87C73.5322 18.59 73.1722 20.08 72.4522 21.34C71.7522 22.6 70.7922 23.57 69.5722 24.25C68.3722 24.93 67.0322 25.27 65.5522 25.27ZM55.3222 30.82V8.74H60.7522V11.5L60.7222 16.87L61.0222 22.27V30.82H55.3222ZM64.3522 20.74C64.9922 20.74 65.5622 20.59 66.0622 20.29C66.5822 19.99 66.9922 19.55 67.2922 18.97C67.6122 18.39 67.7722 17.69 67.7722 16.87C67.7722 16.05 67.6122 15.35 67.2922 14.77C66.9922 14.19 66.5822 13.75 66.0622 13.45C65.5622 13.15 64.9922 13 64.3522 13C63.7122 13 63.1322 13.15 62.6122 13.45C62.1122 13.75 61.7022 14.19 61.3822 14.77C61.0822 15.35 60.9322 16.05 60.9322 16.87C60.9322 17.69 61.0822 18.39 61.3822 18.97C61.7022 19.55 62.1122 19.99 62.6122 20.29C63.1322 20.59 63.7122 20.74 64.3522 20.74ZM83.4416 25.27C81.3616 25.27 79.7416 24.76 78.5816 23.74C77.4216 22.7 76.8416 21.14 76.8416 19.06V5.11H82.5416V19C82.5416 19.58 82.7016 20.04 83.0216 20.38C83.3416 20.7 83.7516 20.86 84.2516 20.86C84.9316 20.86 85.5116 20.69 85.9916 20.35L87.4016 24.34C86.9216 24.66 86.3316 24.89 85.6316 25.03C84.9316 25.19 84.2016 25.27 83.4416 25.27ZM74.4716 13.6V9.34H86.2616V13.6H74.4716ZM97.2908 25.27C95.5108 25.27 93.9308 24.91 92.5508 24.19C91.1708 23.47 90.0808 22.48 89.2808 21.22C88.5008 19.94 88.1108 18.48 88.1108 16.84C88.1108 15.2 88.5008 13.75 89.2808 12.49C90.0808 11.23 91.1708 10.25 92.5508 9.55C93.9308 8.83 95.5108 8.47 97.2908 8.47C99.0708 8.47 100.651 8.83 102.031 9.55C103.431 10.25 104.521 11.23 105.301 12.49C106.081 13.75 106.471 15.2 106.471 16.84C106.471 18.48 106.081 19.94 105.301 21.22C104.521 22.48 103.431 23.47 102.031 24.19C100.651 24.91 99.0708 25.27 97.2908 25.27ZM97.2908 20.74C97.9508 20.74 98.5308 20.59 99.0308 20.29C99.5508 19.99 99.9608 19.55 100.261 18.97C100.561 18.37 100.711 17.66 100.711 16.84C100.711 16.02 100.561 15.33 100.261 14.77C99.9608 14.19 99.5508 13.75 99.0308 13.45C98.5308 13.15 97.9508 13 97.2908 13C96.6508 13 96.0708 13.15 95.5508 13.45C95.0508 13.75 94.6408 14.19 94.3208 14.77C94.0208 15.33 93.8708 16.02 93.8708 16.84C93.8708 17.66 94.0208 18.37 94.3208 18.97C94.6408 19.55 95.0508 19.99 95.5508 20.29C96.0708 20.59 96.6508 20.74 97.2908 20.74ZM109.381 25V4H118.981C120.901 4 122.551 4.31 123.931 4.93C125.331 5.55 126.411 6.45 127.171 7.63C127.931 8.79 128.311 10.17 128.311 11.77C128.311 13.35 127.931 14.72 127.171 15.88C126.411 17.04 125.331 17.94 123.931 18.58C122.551 19.2 120.901 19.51 118.981 19.51H112.681L115.321 16.93V25H109.381ZM115.321 17.56L112.681 14.83H118.621C119.861 14.83 120.781 14.56 121.381 14.02C122.001 13.48 122.311 12.73 122.311 11.77C122.311 10.79 122.001 10.03 121.381 9.49C120.781 8.95 119.861 8.68 118.621 8.68H112.681L115.321 5.95V17.56ZM131.055 25V8.74H136.485V13.48L135.675 12.13C136.155 10.91 136.935 10 138.015 9.4C139.095 8.78 140.405 8.47 141.945 8.47V13.6C141.685 13.56 141.455 13.54 141.255 13.54C141.075 13.52 140.875 13.51 140.655 13.51C139.495 13.51 138.555 13.83 137.835 14.47C137.115 15.09 136.755 16.11 136.755 17.53V25H131.055ZM144.297 25V8.74H149.997V25H144.297ZM147.147 6.94C146.107 6.94 145.267 6.65 144.627 6.07C143.987 5.49 143.667 4.77 143.667 3.91C143.667 3.05 143.987 2.33 144.627 1.75C145.267 1.17 146.107 0.879999 147.147 0.879999C148.187 0.879999 149.027 1.16 149.667 1.72C150.307 2.26 150.627 2.96 150.627 3.82C150.627 4.72 150.307 5.47 149.667 6.07C149.047 6.65 148.207 6.94 147.147 6.94ZM162.011 25.27C160.211 25.27 158.601 24.91 157.181 24.19C155.781 23.47 154.681 22.48 153.881 21.22C153.081 19.94 152.681 18.48 152.681 16.84C152.681 15.2 153.081 13.75 153.881 12.49C154.681 11.23 155.781 10.25 157.181 9.55C158.601 8.83 160.211 8.47 162.011 8.47C163.851 8.47 165.441 8.86 166.781 9.64C168.121 10.42 169.071 11.52 169.631 12.94L165.221 15.19C164.841 14.43 164.371 13.88 163.811 13.54C163.251 13.18 162.641 13 161.981 13C161.321 13 160.721 13.15 160.181 13.45C159.641 13.75 159.211 14.19 158.891 14.77C158.591 15.33 158.441 16.02 158.441 16.84C158.441 17.68 158.591 18.39 158.891 18.97C159.211 19.55 159.641 19.99 160.181 20.29C160.721 20.59 161.321 20.74 161.981 20.74C162.641 20.74 163.251 20.57 163.811 20.23C164.371 19.87 164.841 19.31 165.221 18.55L169.631 20.8C169.071 22.22 168.121 23.32 166.781 24.1C165.441 24.88 163.851 25.27 162.011 25.27ZM180.121 25.27C178.201 25.27 176.521 24.91 175.081 24.19C173.661 23.45 172.551 22.45 171.751 21.19C170.971 19.91 170.581 18.46 170.581 16.84C170.581 15.22 170.961 13.78 171.721 12.52C172.501 11.24 173.571 10.25 174.931 9.55C176.291 8.83 177.821 8.47 179.521 8.47C181.121 8.47 182.581 8.8 183.901 9.46C185.221 10.1 186.271 11.05 187.051 12.31C187.831 13.57 188.221 15.1 188.221 16.9C188.221 17.1 188.211 17.33 188.191 17.59C188.171 17.85 188.151 18.09 188.131 18.31H175.261V15.31H185.101L182.941 16.15C182.961 15.41 182.821 14.77 182.521 14.23C182.241 13.69 181.841 13.27 181.321 12.97C180.821 12.67 180.231 12.52 179.551 12.52C178.871 12.52 178.271 12.67 177.751 12.97C177.251 13.27 176.861 13.7 176.581 14.26C176.301 14.8 176.161 15.44 176.161 16.18V17.05C176.161 17.85 176.321 18.54 176.641 19.12C176.981 19.7 177.461 20.15 178.081 20.47C178.701 20.77 179.441 20.92 180.301 20.92C181.101 20.92 181.781 20.81 182.341 20.59C182.921 20.35 183.491 19.99 184.051 19.51L187.051 22.63C186.271 23.49 185.311 24.15 184.171 24.61C183.031 25.05 181.681 25.27 180.121 25.27ZM196.76 25.27C195.38 25.27 194.03 25.11 192.71 24.79C191.41 24.47 190.36 24.07 189.56 23.59L191.27 19.69C192.03 20.15 192.92 20.52 193.94 20.8C194.96 21.06 195.96 21.19 196.94 21.19C197.9 21.19 198.56 21.09 198.92 20.89C199.3 20.69 199.49 20.42 199.49 20.08C199.49 19.76 199.31 19.53 198.95 19.39C198.61 19.23 198.15 19.11 197.57 19.03C197.01 18.95 196.39 18.86 195.71 18.76C195.03 18.66 194.34 18.53 193.64 18.37C192.96 18.19 192.33 17.93 191.75 17.59C191.19 17.23 190.74 16.75 190.4 16.15C190.06 15.55 189.89 14.79 189.89 13.87C189.89 12.83 190.19 11.91 190.79 11.11C191.41 10.29 192.31 9.65 193.49 9.19C194.67 8.71 196.11 8.47 197.81 8.47C198.95 8.47 200.1 8.59 201.26 8.83C202.44 9.05 203.43 9.39 204.23 9.85L202.52 13.72C201.72 13.26 200.92 12.95 200.12 12.79C199.32 12.61 198.56 12.52 197.84 12.52C196.88 12.52 196.2 12.63 195.8 12.85C195.42 13.07 195.23 13.34 195.23 13.66C195.23 13.98 195.4 14.23 195.74 14.41C196.08 14.57 196.53 14.7 197.09 14.8C197.67 14.88 198.3 14.97 198.98 15.07C199.66 15.15 200.34 15.28 201.02 15.46C201.72 15.64 202.35 15.91 202.91 16.27C203.49 16.61 203.95 17.08 204.29 17.68C204.63 18.26 204.8 19.01 204.8 19.93C204.8 20.93 204.49 21.83 203.87 22.63C203.27 23.43 202.37 24.07 201.17 24.55C199.99 25.03 198.52 25.27 196.76 25.27Z" fill="white"/>
</svg>
