<svg width="268" height="49" viewBox="0 0 268 49" fill="none" xmlns="http://www.w3.org/2000/svg">
<path d="M44.1922 40.36C41.4322 40.36 39.1642 39.808 37.3882 38.704C35.6362 37.6 34.3282 36.064 33.4642 34.096C32.6242 32.104 32.2042 29.8 32.2042 27.184C32.2042 24.592 32.6842 22.312 33.6442 20.344C34.6042 18.352 36.0082 16.792 37.8562 15.664C39.7282 14.512 41.9842 13.936 44.6242 13.936C45.8962 13.936 47.2042 14.08 48.5482 14.368C49.8922 14.656 51.1762 15.088 52.4002 15.664L50.4562 20.56C49.5682 20.128 48.6322 19.768 47.6482 19.48C46.6882 19.168 45.6682 19.012 44.5882 19.012C43.3402 19.012 42.2602 19.348 41.3482 20.02C40.4602 20.668 39.7642 21.604 39.2602 22.828C38.7802 24.052 38.5402 25.516 38.5402 27.22C38.5402 28.948 38.7682 30.412 39.2242 31.612C39.7042 32.812 40.4122 33.724 41.3482 34.348C42.2842 34.972 43.4602 35.284 44.8762 35.284C46.0042 35.284 47.0962 35.14 48.1522 34.852C49.2082 34.564 50.2642 34.204 51.3202 33.772V38.992C50.2402 39.472 49.1122 39.82 47.9362 40.036C46.7842 40.252 45.5362 40.36 44.1922 40.36ZM56.0193 40V20.236H60.5913L61.5273 23.476H61.8153C62.3913 22.468 63.1713 21.616 64.1553 20.92C65.1393 20.224 66.2193 19.876 67.3953 19.876C67.7793 19.876 68.1753 19.9 68.5833 19.948C68.9913 19.972 69.3033 20.02 69.5193 20.092L68.9793 25.816C68.7153 25.768 68.4033 25.72 68.0433 25.672C67.7073 25.624 67.2513 25.6 66.6753 25.6C66.0273 25.6 65.3433 25.72 64.6233 25.96C63.9273 26.2 63.3273 26.644 62.8233 27.292C62.3433 27.94 62.1033 28.876 62.1033 30.1V40H56.0193ZM74.2364 48.64C73.6124 48.64 73.0724 48.604 72.6164 48.532C72.1844 48.484 71.8004 48.424 71.4644 48.352V43.564C71.7284 43.612 72.0404 43.66 72.4004 43.708C72.7844 43.756 73.1804 43.78 73.5884 43.78C74.7164 43.78 75.5564 43.444 76.1084 42.772C76.6844 42.124 77.1524 41.356 77.5124 40.468L77.7644 39.784L69.9164 20.236H76.3604L79.9244 31.54C80.0444 31.924 80.1524 32.38 80.2484 32.908C80.3684 33.412 80.4524 33.892 80.5004 34.348H80.6444C80.7164 33.844 80.8124 33.352 80.9324 32.872C81.0764 32.392 81.2084 31.96 81.3284 31.576L84.8924 20.236H91.1564L83.1644 41.548C82.6124 43.084 81.9524 44.38 81.1844 45.436C80.4164 46.492 79.4684 47.284 78.3404 47.812C77.2364 48.364 75.8684 48.64 74.2364 48.64ZM93.6716 48.64V20.236H98.6396L99.4676 22.756H99.7556C100.116 22.228 100.536 21.748 101.016 21.316C101.496 20.884 102.084 20.536 102.78 20.272C103.476 20.008 104.292 19.876 105.228 19.876C107.46 19.876 109.224 20.752 110.52 22.504C111.816 24.232 112.464 26.752 112.464 30.064C112.464 32.296 112.14 34.18 111.492 35.716C110.844 37.252 109.956 38.416 108.828 39.208C107.724 39.976 106.464 40.36 105.048 40.36C103.632 40.36 102.504 40.108 101.664 39.604C100.848 39.076 100.212 38.524 99.7556 37.948H99.5396C99.5876 38.404 99.6356 38.908 99.6836 39.46C99.7316 39.988 99.7556 40.576 99.7556 41.224V48.64H93.6716ZM103.104 35.428C103.8 35.428 104.376 35.236 104.832 34.852C105.312 34.444 105.66 33.844 105.876 33.052C106.116 32.236 106.236 31.216 106.236 29.992C106.236 28.144 105.96 26.8 105.408 25.96C104.88 25.12 104.088 24.7 103.032 24.7C101.832 24.7 100.992 25.096 100.512 25.888C100.056 26.68 99.8036 27.88 99.7556 29.488V30.028C99.7556 31.78 99.9836 33.124 100.44 34.06C100.92 34.972 101.808 35.428 103.104 35.428ZM123.758 40.36C122.51 40.36 121.406 40.168 120.446 39.784C119.51 39.376 118.766 38.692 118.214 37.732C117.686 36.748 117.422 35.38 117.422 33.628V24.808H114.938V22.252L117.926 20.308L119.582 16.132H123.542V20.236H128.582V24.808H123.542V33.268C123.542 34.012 123.722 34.576 124.082 34.96C124.466 35.344 124.994 35.536 125.666 35.536C126.242 35.536 126.782 35.476 127.286 35.356C127.814 35.212 128.33 35.056 128.834 34.888V39.352C128.186 39.64 127.454 39.88 126.638 40.072C125.846 40.264 124.886 40.36 123.758 40.36ZM141.162 40.36C139.314 40.36 137.658 39.964 136.194 39.172C134.73 38.356 133.578 37.18 132.738 35.644C131.922 34.108 131.514 32.248 131.514 30.064C131.514 26.8 132.378 24.292 134.106 22.54C135.858 20.764 138.258 19.876 141.306 19.876C143.178 19.876 144.834 20.272 146.274 21.064C147.738 21.832 148.878 22.984 149.694 24.52C150.534 26.032 150.954 27.88 150.954 30.064C150.954 32.248 150.558 34.108 149.766 35.644C148.974 37.18 147.846 38.356 146.382 39.172C144.942 39.964 143.202 40.36 141.162 40.36ZM141.27 35.752C142.11 35.752 142.782 35.536 143.286 35.104C143.79 34.672 144.162 34.024 144.402 33.16C144.642 32.296 144.762 31.264 144.762 30.064C144.762 28.84 144.642 27.82 144.402 27.004C144.162 26.164 143.778 25.528 143.25 25.096C142.746 24.664 142.074 24.448 141.234 24.448C139.986 24.448 139.086 24.928 138.534 25.888C137.982 26.848 137.706 28.24 137.706 30.064C137.706 31.264 137.826 32.296 138.066 33.16C138.306 34.024 138.69 34.672 139.218 35.104C139.746 35.536 140.43 35.752 141.27 35.752ZM155.486 40V14.296H163.946C167.234 14.296 169.67 14.992 171.254 16.384C172.862 17.776 173.666 19.756 173.666 22.324C173.666 23.476 173.498 24.58 173.162 25.636C172.826 26.692 172.274 27.64 171.506 28.48C170.762 29.296 169.754 29.944 168.482 30.424C167.21 30.904 165.65 31.144 163.802 31.144H161.678V40H155.486ZM161.678 26.104H163.298C164.114 26.104 164.834 25.996 165.458 25.78C166.106 25.54 166.598 25.156 166.934 24.628C167.294 24.076 167.474 23.368 167.474 22.504C167.474 21.52 167.174 20.74 166.574 20.164C165.974 19.588 165.038 19.3 163.766 19.3H161.678V26.104ZM177.625 40V20.236H182.197L183.133 23.476H183.421C183.997 22.468 184.777 21.616 185.761 20.92C186.745 20.224 187.825 19.876 189.001 19.876C189.385 19.876 189.781 19.9 190.189 19.948C190.597 19.972 190.909 20.02 191.125 20.092L190.585 25.816C190.321 25.768 190.009 25.72 189.649 25.672C189.313 25.624 188.857 25.6 188.281 25.6C187.633 25.6 186.949 25.72 186.229 25.96C185.533 26.2 184.933 26.644 184.429 27.292C183.949 27.94 183.709 28.876 183.709 30.1V40H177.625ZM194.114 40V20.236H200.198V40H194.114ZM197.174 18.004C196.262 18.004 195.482 17.812 194.834 17.428C194.21 17.02 193.898 16.276 193.898 15.196C193.898 14.092 194.21 13.348 194.834 12.964C195.482 12.556 196.262 12.352 197.174 12.352C198.062 12.352 198.83 12.556 199.478 12.964C200.126 13.348 200.45 14.092 200.45 15.196C200.45 16.276 200.126 17.02 199.478 17.428C198.83 17.812 198.062 18.004 197.174 18.004ZM214.042 40.36C212.098 40.36 210.394 40 208.93 39.28C207.49 38.56 206.362 37.456 205.546 35.968C204.754 34.456 204.358 32.536 204.358 30.208C204.358 27.784 204.802 25.816 205.69 24.304C206.578 22.792 207.778 21.676 209.29 20.956C210.826 20.236 212.566 19.876 214.51 19.876C215.686 19.876 216.802 20.008 217.858 20.272C218.914 20.512 219.874 20.848 220.738 21.28L218.938 25.852C218.17 25.516 217.426 25.24 216.706 25.024C215.986 24.808 215.254 24.7 214.51 24.7C213.694 24.7 212.986 24.904 212.386 25.312C211.786 25.72 211.33 26.332 211.018 27.148C210.706 27.94 210.55 28.948 210.55 30.172C210.55 31.396 210.706 32.404 211.018 33.196C211.354 33.964 211.81 34.54 212.386 34.924C212.986 35.284 213.694 35.464 214.51 35.464C215.494 35.464 216.466 35.32 217.426 35.032C218.386 34.744 219.286 34.348 220.126 33.844V38.74C219.334 39.244 218.446 39.64 217.462 39.928C216.502 40.216 215.362 40.36 214.042 40.36ZM233.566 40.36C231.574 40.36 229.81 40 228.274 39.28C226.738 38.56 225.526 37.456 224.638 35.968C223.774 34.456 223.342 32.548 223.342 30.244C223.342 27.892 223.738 25.96 224.53 24.448C225.346 22.912 226.462 21.772 227.878 21.028C229.318 20.26 230.986 19.876 232.882 19.876C234.778 19.876 236.398 20.212 237.742 20.884C239.11 21.556 240.154 22.564 240.874 23.908C241.618 25.252 241.99 26.908 241.99 28.876V31.72H229.498C229.546 32.992 229.966 34.012 230.758 34.78C231.574 35.548 232.738 35.932 234.25 35.932C235.498 35.932 236.626 35.812 237.634 35.572C238.642 35.332 239.686 34.96 240.766 34.456V38.92C239.806 39.424 238.774 39.784 237.67 40C236.566 40.24 235.198 40.36 233.566 40.36ZM229.642 27.76H236.374C236.374 26.728 236.086 25.864 235.51 25.168C234.958 24.448 234.142 24.088 233.062 24.088C232.102 24.088 231.322 24.4 230.722 25.024C230.122 25.624 229.762 26.536 229.642 27.76ZM252.157 40.36C250.765 40.36 249.517 40.276 248.413 40.108C247.333 39.94 246.265 39.64 245.209 39.208V34.276C246.361 34.804 247.561 35.2 248.809 35.464C250.081 35.728 251.125 35.86 251.941 35.86C252.901 35.86 253.597 35.74 254.029 35.5C254.461 35.26 254.677 34.924 254.677 34.492C254.677 34.156 254.557 33.868 254.317 33.628C254.077 33.364 253.633 33.088 252.985 32.8C252.361 32.512 251.473 32.14 250.321 31.684C249.193 31.204 248.245 30.7 247.477 30.172C246.709 29.644 246.133 29.02 245.749 28.3C245.365 27.556 245.173 26.644 245.173 25.564C245.173 23.692 245.905 22.276 247.369 21.316C248.833 20.356 250.765 19.876 253.165 19.876C254.461 19.876 255.673 20.02 256.801 20.308C257.929 20.572 259.069 20.956 260.221 21.46L258.529 25.492C257.593 25.06 256.633 24.724 255.649 24.484C254.665 24.22 253.837 24.088 253.165 24.088C252.469 24.088 251.929 24.184 251.545 24.376C251.161 24.568 250.969 24.844 250.969 25.204C250.969 25.516 251.077 25.792 251.293 26.032C251.533 26.248 251.953 26.488 252.553 26.752C253.177 27.016 254.053 27.376 255.181 27.832C256.357 28.288 257.329 28.78 258.097 29.308C258.865 29.836 259.441 30.472 259.825 31.216C260.233 31.96 260.437 32.908 260.437 34.06C260.437 35.308 260.149 36.412 259.573 37.372C258.997 38.308 258.097 39.04 256.873 39.568C255.649 40.096 254.077 40.36 252.157 40.36Z" fill="white"/>
<mask id="mask0_2_28" style="mask-type:luminance" maskUnits="userSpaceOnUse" x="0" y="13" width="27" height="31">
<path d="M26.6239 13H0V44H26.6239V13Z" fill="white"/>
</mask>
<g mask="url(#mask0_2_28)">
<path d="M14.8511 26.1838C14.2468 26.1838 13.6672 25.9586 13.2399 25.5576C12.8126 25.1567 12.5725 24.6129 12.5725 24.0459C12.5725 23.4789 12.8126 22.9351 13.2399 22.5341C13.6672 22.1332 14.2468 21.9079 14.8511 21.9079C16.7642 21.906 18.5981 21.1921 19.9509 19.9229C21.3036 18.6537 22.0646 16.9329 22.0668 15.138C22.0668 14.571 22.3068 14.0272 22.7342 13.6263C23.1614 13.2253 23.741 13.0001 24.3453 13.0001C24.9497 13.0001 25.5293 13.2253 25.9565 13.6263C26.3839 14.0272 26.6239 14.571 26.6239 15.138C26.6203 18.0666 25.3789 20.8742 23.1718 22.945C20.9648 25.0158 17.9724 26.1806 14.8511 26.1838Z" fill="#EC6C0C"/>
<path d="M2.27866 44C1.67433 44 1.09474 43.7748 0.667407 43.3738C0.240076 42.9728 0 42.4291 0 41.862C0.00350917 38.9334 1.24499 36.1257 3.45205 34.0549C5.65913 31.984 8.65154 30.8193 11.7728 30.816C12.3771 30.816 12.9567 31.0413 13.384 31.4423C13.8113 31.8431 14.0514 32.3869 14.0514 32.954C14.0514 33.521 13.8113 34.0648 13.384 34.4657C12.9567 34.8667 12.3771 35.0919 11.7728 35.0919C9.85976 35.094 8.02572 35.8078 6.673 37.077C5.32028 38.3463 4.55934 40.067 4.55716 41.862C4.55716 42.4289 4.31711 42.9728 3.88982 43.3738C3.46252 43.7748 2.88297 44 2.27866 44Z" fill="#BE3818"/>
<path d="M14.8511 44C14.2501 43.9953 13.6753 43.768 13.2521 43.3676C12.8288 42.9672 12.5913 42.426 12.5913 41.862C12.5913 41.2981 12.8288 40.7569 13.2521 40.3565C13.6753 39.9561 14.2501 39.7288 14.8511 39.7241C15.7987 39.7241 16.737 39.549 17.6124 39.2088C18.4879 38.8686 19.2832 38.3698 19.9533 37.7413C20.6233 37.1125 21.1548 36.3662 21.5174 35.5449C21.88 34.7234 22.0666 33.843 22.0666 32.9539C22.0666 32.0648 21.88 31.1845 21.5174 30.3631C21.1548 29.5418 20.6233 28.7954 19.9533 28.1667C19.2832 27.5381 18.4879 27.0394 17.6124 26.6992C16.737 26.3589 15.7987 26.1838 14.8511 26.1838C14.2468 26.1838 13.6672 25.9586 13.2399 25.5576C12.8126 25.1567 12.5725 24.6129 12.5725 24.0459C12.5725 23.4789 12.8126 22.9351 13.2399 22.5341C13.6672 22.1332 14.2468 21.9079 14.8511 21.9079C16.4008 21.9026 17.9362 22.1845 19.3695 22.7372C20.8029 23.2899 22.1057 24.1027 23.2033 25.129C24.3011 26.1552 25.1722 27.3747 25.7665 28.7175C26.3608 30.0603 26.6668 31.4999 26.6668 32.9539C26.6668 34.4079 26.3608 35.8477 25.7665 37.1904C25.1722 38.5331 24.3011 39.7527 23.2033 40.7789C22.1057 41.8052 20.8029 42.618 19.3695 43.1708C17.9362 43.7235 16.4008 44.0053 14.8511 44Z" fill="url(#paint0_linear_2_28)"/>
<path d="M23.0112 23.0922C24.154 22.0636 25.0634 20.8286 25.6842 19.4616C26.3051 18.0946 26.6247 16.6239 26.6239 15.138C26.6239 14.571 26.3839 14.0272 25.9565 13.6263C25.5293 13.2253 24.9497 13.0001 24.3454 13.0001C23.741 13.0001 23.1614 13.2253 22.7342 13.6263C22.3068 14.0272 22.0668 14.571 22.0668 15.138C22.0661 16.288 21.7534 17.419 21.1579 18.4242C20.5625 19.4294 19.704 20.2757 18.6634 20.8834C20.263 21.3222 21.7451 22.0752 23.0112 23.0922Z" fill="url(#paint1_linear_2_28)"/>
<path d="M11.7728 35.0919C8.65049 35.0919 5.65608 33.9281 3.44829 31.8566C1.24049 29.7852 0.000167847 26.9755 0.000167847 24.046C0.000167847 21.1164 1.24049 18.3068 3.44829 16.2353C5.65608 14.1638 8.65049 13 11.7728 13C12.3771 13 12.9567 13.2252 13.384 13.6262C13.8113 14.0271 14.0514 14.5709 14.0514 15.1379C14.0514 15.7049 13.8113 16.2487 13.384 16.6497C12.9567 17.0506 12.3771 17.2759 11.7728 17.2759C10.8252 17.2759 9.88698 17.451 9.01157 17.7912C8.13613 18.1314 7.34072 18.6301 6.67069 19.2588C6.00068 19.8874 5.46919 20.6338 5.10657 21.4552C4.74396 22.2765 4.55733 23.1569 4.55733 24.046C4.55733 24.935 4.74396 25.8154 5.10657 26.6367C5.46919 27.4581 6.00068 28.2044 6.67069 28.8332C7.34072 29.4617 8.13613 29.9605 9.01157 30.3007C9.88698 30.6409 10.8252 30.816 11.7728 30.816C12.3771 30.816 12.9567 31.0413 13.384 31.4423C13.8113 31.8431 14.0514 32.3869 14.0514 32.9539C14.0514 33.521 13.8113 34.0648 13.384 34.4657C12.9567 34.8667 12.3771 35.0919 11.7728 35.0919Z" fill="url(#paint2_linear_2_28)"/>
<path d="M3.61293 33.9077C2.47 34.9363 1.56072 36.1712 0.939826 37.5383C0.31893 38.9053 -0.00074319 40.376 5.51054e-05 41.862C-0.00243374 42.1443 0.0546663 42.4241 0.16806 42.6856C0.281453 42.947 0.448899 43.1848 0.660732 43.3852C0.872565 43.5857 1.12459 43.7448 1.40228 43.8532C1.67997 43.9618 1.97782 44.0177 2.27863 44.0177C2.57947 44.0177 2.87732 43.9618 3.155 43.8532C3.43269 43.7448 3.68471 43.5857 3.89655 43.3852C4.10838 43.1848 4.27582 42.947 4.38921 42.6856C4.50261 42.4241 4.55971 42.1443 4.55721 41.862C4.55782 40.712 4.87062 39.581 5.4661 38.5757C6.06157 37.5705 6.92013 36.7241 7.96077 36.1165C6.36105 35.6776 4.87902 34.9246 3.61293 33.9077Z" fill="#E64A1A"/>
</g>
<defs>
<linearGradient id="paint0_linear_2_28" x1="19.6196" y1="44" x2="19.6196" y2="21.9079" gradientUnits="userSpaceOnUse">
<stop stop-color="#E9592D"/>
<stop offset="1" stop-color="#F39519"/>
</linearGradient>
<linearGradient id="paint1_linear_2_28" x1="20.8207" y1="22.0527" x2="27.6343" y2="15.1684" gradientUnits="userSpaceOnUse">
<stop offset="0.005" stop-color="#F39519"/>
<stop offset="0.146" stop-color="#F39519"/>
<stop offset="1" stop-color="#F39519"/>
</linearGradient>
<linearGradient id="paint2_linear_2_28" x1="7.02577" y1="35.0919" x2="7.02577" y2="13" gradientUnits="userSpaceOnUse">
<stop stop-color="#E9592D"/>
<stop offset="1" stop-color="#F39519"/>
</linearGradient>
</defs>
</svg>
