<svg width="258" height="35" viewBox="0 0 258 35" fill="none" xmlns="http://www.w3.org/2000/svg">
<path d="M51.06 7C54.12 7 56.54 7.77 58.32 9.31C60.1 10.83 60.99 13.01 60.99 15.85H54.66C54.66 14.65 54.34 13.7 53.7 13C53.08 12.3 52.19 11.95 51.03 11.95C49.69 11.95 48.7 12.37 48.06 13.21C47.44 14.05 47.13 15.22 47.13 16.72V18.64C47.13 20.12 47.44 21.29 48.06 22.15C48.7 22.99 49.67 23.41 50.97 23.41C52.25 23.41 53.22 23.08 53.88 22.42C54.54 21.76 54.87 20.83 54.87 19.63H60.99C60.99 22.45 60.12 24.61 58.38 26.11C56.66 27.61 54.22 28.36 51.06 28.36C47.54 28.36 44.87 27.46 43.05 25.66C41.25 23.86 40.35 21.2 40.35 17.68C40.35 14.16 41.25 11.5 43.05 9.7C44.87 7.9 47.54 7 51.06 7ZM73.7796 11.77C74.2396 11.77 74.6496 11.83 75.0096 11.95C75.3696 12.05 75.5496 12.11 75.5496 12.13V17.14H73.6296C72.3896 17.14 71.4896 17.46 70.9296 18.1C70.3896 18.74 70.1196 19.69 70.1196 20.95V28H64.1496V12.16H69.0396L69.4296 14.56C69.7896 13.64 70.3596 12.95 71.1396 12.49C71.9196 12.01 72.7996 11.77 73.7796 11.77ZM90.0982 27.52C89.2782 29.74 88.2682 31.42 87.0682 32.56C85.8882 33.72 84.2282 34.3 82.0882 34.3C80.7882 34.3 79.6382 34.12 78.6382 33.76V30.19H81.0382C82.5382 30.19 83.4282 29.46 83.7082 28L77.4082 12.16H83.8282L86.8582 22.69H87.0682L89.8582 12.16H95.7382L90.0982 27.52ZM107.988 11.8C110.128 11.8 111.778 12.5 112.938 13.9C114.098 15.3 114.678 17.37 114.678 20.11C114.678 22.83 114.098 24.89 112.938 26.29C111.778 27.67 110.128 28.36 107.988 28.36C106.148 28.36 104.668 27.76 103.548 26.56V33.91H97.578V12.16H102.438L102.948 14.41C104.108 12.67 105.788 11.8 107.988 11.8ZM106.128 16.21C105.248 16.21 104.588 16.52 104.148 17.14C103.708 17.76 103.488 18.57 103.488 19.57V20.56C103.488 21.56 103.708 22.38 104.148 23.02C104.588 23.64 105.248 23.95 106.128 23.95C107.848 23.95 108.708 22.92 108.708 20.86V19.27C108.708 17.23 107.848 16.21 106.128 16.21ZM128.118 12.16V16.21H124.758V22.24C124.758 22.96 124.878 23.49 125.118 23.83C125.358 24.15 125.798 24.31 126.438 24.31H128.118V27.82C127.638 27.98 127.018 28.11 126.258 28.21C125.498 28.31 124.838 28.36 124.278 28.36C122.518 28.36 121.158 28.04 120.198 27.4C119.258 26.76 118.788 25.67 118.788 24.13V16.21H116.568V12.16H119.028L120.318 7.36H124.758V12.16H128.118ZM139.078 11.8C141.858 11.8 144.038 12.51 145.618 13.93C147.218 15.33 148.018 17.38 148.018 20.08C148.018 22.78 147.218 24.84 145.618 26.26C144.038 27.66 141.858 28.36 139.078 28.36C136.298 28.36 134.118 27.66 132.538 26.26C130.958 24.86 130.168 22.8 130.168 20.08C130.168 17.36 130.958 15.3 132.538 13.9C134.118 12.5 136.298 11.8 139.078 11.8ZM139.078 15.85C137.118 15.85 136.138 16.98 136.138 19.24V20.95C136.138 23.19 137.118 24.31 139.078 24.31C141.058 24.31 142.048 23.19 142.048 20.95V19.24C142.048 16.98 141.058 15.85 139.078 15.85ZM162.898 7.36C164.178 7.36 165.318 7.66 166.318 8.26C167.318 8.84 168.098 9.65 168.658 10.69C169.218 11.71 169.498 12.86 169.498 14.14V14.53C169.498 15.81 169.218 16.97 168.658 18.01C168.098 19.05 167.318 19.87 166.318 20.47C165.318 21.05 164.178 21.34 162.898 21.34H157.948V28H151.318V7.36H162.898ZM157.948 16.51H160.678C161.378 16.51 161.898 16.33 162.238 15.97C162.598 15.61 162.778 15.12 162.778 14.5V14.26C162.778 13.62 162.598 13.13 162.238 12.79C161.898 12.43 161.378 12.25 160.678 12.25H157.948V16.51ZM182.178 11.77C182.638 11.77 183.048 11.83 183.408 11.95C183.768 12.05 183.948 12.11 183.948 12.13V17.14H182.028C180.788 17.14 179.888 17.46 179.328 18.1C178.788 18.74 178.518 19.69 178.518 20.95V28H172.548V12.16H177.438L177.828 14.56C178.188 13.64 178.758 12.95 179.538 12.49C180.318 12.01 181.198 11.77 182.178 11.77ZM186.088 10.3V6.25H192.058V10.3H186.088ZM186.088 28V12.16H192.058V28H186.088ZM204.058 11.8C206.658 11.8 208.758 12.36 210.358 13.48C211.978 14.58 212.788 16.27 212.788 18.55H206.998C206.998 16.75 206.018 15.85 204.058 15.85C202.098 15.85 201.118 16.98 201.118 19.24V20.95C201.118 23.19 202.138 24.31 204.178 24.31C206.218 24.31 207.238 23.39 207.238 21.55H212.788C212.788 23.85 211.978 25.56 210.358 26.68C208.758 27.8 206.658 28.36 204.058 28.36C201.278 28.36 199.098 27.66 197.518 26.26C195.938 24.86 195.148 22.8 195.148 20.08C195.148 17.36 195.938 15.3 197.518 13.9C199.098 12.5 201.278 11.8 204.058 11.8ZM224.068 11.8C226.968 11.8 229.178 12.48 230.698 13.84C232.238 15.2 233.008 17.28 233.008 20.08V21.1H221.128C221.128 22.24 221.378 23.1 221.878 23.68C222.398 24.26 223.208 24.55 224.308 24.55C225.308 24.55 226.038 24.34 226.498 23.92C226.978 23.5 227.218 22.94 227.218 22.24H233.008C233.008 24.16 232.278 25.66 230.818 26.74C229.358 27.82 227.228 28.36 224.428 28.36C221.488 28.36 219.208 27.68 217.588 26.32C215.968 24.94 215.158 22.86 215.158 20.08C215.158 17.36 215.948 15.3 217.528 13.9C219.108 12.5 221.288 11.8 224.068 11.8ZM224.308 15.61C222.428 15.61 221.378 16.5 221.158 18.28H226.978C226.978 17.46 226.738 16.81 226.258 16.33C225.798 15.85 225.148 15.61 224.308 15.61ZM243.418 11.8C245.538 11.8 247.328 12.22 248.788 13.06C250.268 13.88 251.008 15.16 251.008 16.9H245.458C245.458 16.32 245.198 15.91 244.678 15.67C244.318 15.47 243.868 15.37 243.328 15.37C241.888 15.37 241.168 15.71 241.168 16.39C241.168 16.77 241.418 17.04 241.918 17.2C242.418 17.36 243.238 17.53 244.378 17.71C245.778 17.91 246.948 18.15 247.888 18.43C248.828 18.69 249.648 19.17 250.348 19.87C251.048 20.55 251.398 21.51 251.398 22.75C251.398 24.77 250.638 26.21 249.118 27.07C247.618 27.93 245.648 28.36 243.208 28.36C241.808 28.36 240.488 28.17 239.248 27.79C238.008 27.39 236.998 26.78 236.218 25.96C235.438 25.14 235.048 24.1 235.048 22.84H240.598V22.96C240.618 23.64 240.898 24.12 241.438 24.4C241.998 24.66 242.588 24.79 243.208 24.79C244.868 24.79 245.698 24.4 245.698 23.62C245.698 23.22 245.438 22.93 244.918 22.75C244.398 22.57 243.548 22.38 242.368 22.18C240.948 21.94 239.778 21.68 238.858 21.4C237.958 21.12 237.168 20.65 236.488 19.99C235.808 19.31 235.468 18.37 235.468 17.17C235.468 15.23 236.198 13.85 237.658 13.03C239.138 12.21 241.058 11.8 243.418 11.8Z" fill="white"/>
<mask id="mask0_2_28" style="mask-type:luminance" maskUnits="userSpaceOnUse" x="0" y="0" width="35" height="35">
<path d="M35 0H0V35H35V0Z" fill="white"/>
</mask>
<g mask="url(#mask0_2_28)">
<path d="M19.5234 14.885C18.729 14.885 17.9671 14.6306 17.4053 14.178C16.8436 13.7253 16.528 13.1113 16.528 12.4712C16.528 11.831 16.8436 11.217 17.4053 10.7643C17.9671 10.3117 18.729 10.0574 19.5234 10.0574C22.0383 10.0551 24.4493 9.24913 26.2276 7.8162C28.0058 6.38325 29.0062 4.4404 29.0091 2.41388C29.0091 1.7737 29.3247 1.15974 29.8865 0.707066C30.4481 0.254392 31.2101 8.10623e-05 32.0045 8.10623e-05C32.799 8.10623e-05 33.561 0.254392 34.1226 0.707066C34.6844 1.15974 35 1.7737 35 2.41388C34.9953 5.72031 33.3633 8.89024 30.4619 11.2282C27.5605 13.5662 23.6266 14.8813 19.5234 14.885Z" fill="#EC6C0C"/>
<path d="M2.99554 35C2.20108 35 1.43915 34.7457 0.877379 34.293C0.315605 33.8402 0 33.2264 0 32.5861C0.00461318 29.2797 1.63667 26.1097 4.53809 23.7716C7.43954 21.4336 11.3734 20.1185 15.4766 20.1149C16.271 20.1149 17.0329 20.3692 17.5947 20.8219C18.1564 21.2745 18.472 21.8885 18.472 22.5288C18.472 23.1689 18.1564 23.7829 17.5947 24.2354C17.0329 24.6882 16.271 24.9425 15.4766 24.9425C12.9617 24.9448 10.5507 25.7508 8.77237 27.1837C6.99407 28.6167 5.99375 30.5595 5.99088 32.5861C5.99088 33.2262 5.67531 33.8402 5.11358 34.293C4.55185 34.7457 3.78998 35 2.99554 35Z" fill="#BE3818"/>
<path d="M19.5234 35C18.7333 34.9947 17.9777 34.7381 17.4213 34.286C16.8648 33.834 16.5526 33.2229 16.5526 32.5861C16.5526 31.9495 16.8648 31.3385 17.4213 30.8864C17.9777 30.4343 18.7333 30.1777 19.5234 30.1724C20.7691 30.1724 22.0026 29.9746 23.1534 29.5906C24.3043 29.2065 25.3498 28.6433 26.2307 27.9337C27.1116 27.2238 27.8102 26.3812 28.2869 25.4539C28.7637 24.5264 29.0089 23.5324 29.0089 22.5286C29.0089 21.5248 28.7637 20.5309 28.2869 19.6035C27.8102 18.6762 27.1116 17.8335 26.2307 17.1237C25.3498 16.4139 24.3043 15.8509 23.1534 15.4668C22.0026 15.0827 20.7691 14.8849 19.5234 14.8849C18.729 14.8849 17.9671 14.6306 17.4053 14.178C16.8436 13.7253 16.528 13.1113 16.528 12.4711C16.528 11.831 16.8436 11.217 17.4053 10.7643C17.9671 10.3117 18.729 10.0573 19.5234 10.0573C21.5606 10.0514 23.579 10.3695 25.4632 10.9936C27.3476 11.6177 29.0604 12.5353 30.5033 13.694C31.9464 14.8527 33.0916 16.2295 33.8729 17.7456C34.6541 19.2616 35.0564 20.887 35.0564 22.5286C35.0564 24.1702 34.6541 25.7957 33.8729 27.3117C33.0916 28.8277 31.9464 30.2046 30.5033 31.3632C29.0604 32.522 27.3476 33.4397 25.4632 34.0638C23.579 34.6879 21.5606 35.0059 19.5234 35Z" fill="url(#paint0_linear_2_28)"/>
<path d="M30.2507 11.3944C31.7531 10.2331 32.9485 8.83874 33.7646 7.29539C34.5809 5.75202 35.001 4.09153 35 2.41388C35 1.7737 34.6844 1.15974 34.1226 0.707066C33.561 0.254392 32.799 8.10623e-05 32.0047 8.10623e-05C31.2101 8.10623e-05 30.4481 0.254392 29.8865 0.707066C29.3247 1.15974 29.0091 1.7737 29.0091 2.41388C29.0083 3.71229 28.5972 4.98916 27.8143 6.12405C27.0316 7.25895 25.9031 8.21449 24.535 8.90057C26.6379 9.39608 28.5863 10.2462 30.2507 11.3944Z" fill="url(#paint1_linear_2_28)"/>
<path d="M15.4766 24.9425C11.372 24.9425 7.43547 23.6285 4.5331 21.2897C1.63071 18.951 0.000167847 15.7788 0.000167847 12.4712C0.000167847 9.16365 1.63071 5.99155 4.5331 3.65274C7.43547 1.31393 11.372 0 15.4766 0C16.271 0 17.0329 0.254311 17.5946 0.706984C18.1564 1.15966 18.472 1.77362 18.472 2.4138C18.472 3.05397 18.1564 3.66793 17.5946 4.12061C17.0329 4.57328 16.271 4.82759 15.4766 4.82759C14.2309 4.82759 12.9975 5.02529 11.8466 5.40942C10.6958 5.79356 9.65011 6.35659 8.76928 7.06636C7.88848 7.77615 7.18978 8.61876 6.71309 9.54615C6.23639 10.4735 5.99105 11.4675 5.99105 12.4712C5.99105 13.475 6.23639 14.469 6.71309 15.3963C7.18978 16.3237 7.88848 17.1663 8.76928 17.8762C9.65011 18.5858 10.6958 19.1489 11.8466 19.5331C12.9975 19.9171 14.2309 20.1149 15.4766 20.1149C16.271 20.1149 17.0329 20.3692 17.5946 20.8219C18.1564 21.2745 18.472 21.8885 18.472 22.5286C18.472 23.1689 18.1564 23.7829 17.5946 24.2354C17.0329 24.6882 16.271 24.9425 15.4766 24.9425Z" fill="url(#paint2_linear_2_28)"/>
<path d="M4.7496 23.6054C3.24709 24.7668 2.05174 26.1611 1.23551 27.7045C0.419275 29.2479 -0.000969802 30.9084 7.96427e-05 32.5861C-0.00319221 32.9049 0.071872 33.2208 0.22094 33.516C0.370008 33.8112 0.590133 34.0797 0.86861 34.3059C1.14709 34.5322 1.47841 34.7118 1.84346 34.8343C2.2085 34.9569 2.60006 35.02 2.99552 35.02C3.39099 35.02 3.78255 34.9569 4.1476 34.8343C4.51264 34.7118 4.84396 34.5322 5.12243 34.3059C5.40091 34.0797 5.62103 33.8112 5.7701 33.516C5.91917 33.2208 5.99424 32.9049 5.99096 32.5861C5.99175 31.2877 6.40296 30.0108 7.18579 28.8758C7.9686 27.7408 9.09726 26.7853 10.4653 26.0993C8.36229 25.6037 6.41401 24.7536 4.7496 23.6054Z" fill="#E64A1A"/>
</g>
<defs>
<linearGradient id="paint0_linear_2_28" x1="25.7921" y1="35" x2="25.7921" y2="10.0573" gradientUnits="userSpaceOnUse">
<stop stop-color="#E9592D"/>
<stop offset="1" stop-color="#F39519"/>
</linearGradient>
<linearGradient id="paint1_linear_2_28" x1="27.371" y1="10.2208" x2="34.9638" y2="1.28835" gradientUnits="userSpaceOnUse">
<stop offset="0.005" stop-color="#F39519"/>
<stop offset="0.146" stop-color="#F39519"/>
<stop offset="1" stop-color="#F39519"/>
</linearGradient>
<linearGradient id="paint2_linear_2_28" x1="9.23607" y1="24.9425" x2="9.23607" y2="0" gradientUnits="userSpaceOnUse">
<stop stop-color="#E9592D"/>
<stop offset="1" stop-color="#F39519"/>
</linearGradient>
</defs>
</svg>
