<svg width="305" height="50" viewBox="0 0 305 50" fill="none" xmlns="http://www.w3.org/2000/svg">
<path d="M55.44 40.4C52.3733 40.4 49.8533 39.7867 47.88 38.56C45.9333 37.3333 44.48 35.6267 43.52 33.44C42.5867 31.2267 42.12 28.6667 42.12 25.76C42.12 22.88 42.6533 20.3467 43.72 18.16C44.7867 15.9467 46.3467 14.2133 48.4 12.96C50.48 11.68 52.9867 11.04 55.92 11.04C57.3333 11.04 58.7867 11.2 60.28 11.52C61.7733 11.84 63.2 12.32 64.56 12.96L62.4 18.4C61.4133 17.92 60.3733 17.52 59.28 17.2C58.2133 16.8533 57.08 16.68 55.88 16.68C54.4933 16.68 53.2933 17.0533 52.28 17.8C51.2933 18.52 50.52 19.56 49.96 20.92C49.4267 22.28 49.16 23.9067 49.16 25.8C49.16 27.72 49.4133 29.3467 49.92 30.68C50.4533 32.0133 51.24 33.0267 52.28 33.72C53.32 34.4133 54.6267 34.76 56.2 34.76C57.4533 34.76 58.6667 34.6 59.84 34.28C61.0133 33.96 62.1867 33.56 63.36 33.08V38.88C62.16 39.4133 60.9067 39.8 59.6 40.04C58.32 40.28 56.9333 40.4 55.44 40.4ZM68.5813 40V18.04H73.6613L74.7013 21.64H75.0213C75.6613 20.52 76.5279 19.5733 77.6213 18.8C78.7146 18.0267 79.9146 17.64 81.2213 17.64C81.6479 17.64 82.0879 17.6667 82.5413 17.72C82.9946 17.7467 83.3413 17.8 83.5813 17.88L82.9813 24.24C82.6879 24.1867 82.3413 24.1333 81.9413 24.08C81.5679 24.0267 81.0613 24 80.4213 24C79.7013 24 78.9413 24.1333 78.1413 24.4C77.3679 24.6667 76.7013 25.16 76.1413 25.88C75.6079 26.6 75.3413 27.64 75.3413 29V40H68.5813ZM88.8225 49.6C88.1292 49.6 87.5292 49.56 87.0225 49.48C86.5425 49.4267 86.1158 49.36 85.7425 49.28V43.96C86.0358 44.0133 86.3825 44.0667 86.7825 44.12C87.2092 44.1733 87.6492 44.2 88.1025 44.2C89.3558 44.2 90.2892 43.8267 90.9025 43.08C91.5425 42.36 92.0625 41.5067 92.4625 40.52L92.7425 39.76L84.0225 18.04H91.1825L95.1425 30.6C95.2758 31.0267 95.3958 31.5333 95.5025 32.12C95.6358 32.68 95.7292 33.2133 95.7825 33.72H95.9425C96.0225 33.16 96.1292 32.6133 96.2625 32.08C96.4225 31.5467 96.5692 31.0667 96.7025 30.64L100.663 18.04H107.623L98.7425 41.72C98.1292 43.4267 97.3958 44.8667 96.5425 46.04C95.6892 47.2133 94.6358 48.0933 93.3825 48.68C92.1558 49.2933 90.6358 49.6 88.8225 49.6ZM110.417 49.6V18.04H115.937L116.857 20.84H117.177C117.577 20.2533 118.044 19.72 118.577 19.24C119.111 18.76 119.764 18.3733 120.537 18.08C121.311 17.7867 122.217 17.64 123.257 17.64C125.737 17.64 127.697 18.6133 129.137 20.56C130.577 22.48 131.297 25.28 131.297 28.96C131.297 31.44 130.937 33.5333 130.217 35.24C129.497 36.9467 128.511 38.24 127.257 39.12C126.031 39.9733 124.631 40.4 123.057 40.4C121.484 40.4 120.231 40.12 119.297 39.56C118.391 38.9733 117.684 38.36 117.177 37.72H116.937C116.991 38.2267 117.044 38.7867 117.097 39.4C117.151 39.9867 117.177 40.64 117.177 41.36V49.6H110.417ZM120.897 34.92C121.671 34.92 122.311 34.7067 122.817 34.28C123.351 33.8267 123.737 33.16 123.977 32.28C124.244 31.3733 124.377 30.24 124.377 28.88C124.377 26.8267 124.071 25.3333 123.457 24.4C122.871 23.4667 121.991 23 120.817 23C119.484 23 118.551 23.44 118.017 24.32C117.511 25.2 117.231 26.5333 117.177 28.32V28.92C117.177 30.8667 117.431 32.36 117.937 33.4C118.471 34.4133 119.457 34.92 120.897 34.92ZM143.846 40.4C142.459 40.4 141.233 40.1867 140.166 39.76C139.126 39.3067 138.299 38.5467 137.686 37.48C137.099 36.3867 136.806 34.8667 136.806 32.92V23.12H134.046V20.28L137.366 18.12L139.206 13.48H143.606V18.04H149.206V23.12H143.606V32.52C143.606 33.3467 143.806 33.9733 144.206 34.4C144.633 34.8267 145.219 35.04 145.966 35.04C146.606 35.04 147.206 34.9733 147.766 34.84C148.353 34.68 148.926 34.5067 149.486 34.32V39.28C148.766 39.6 147.953 39.8667 147.046 40.08C146.166 40.2933 145.099 40.4 143.846 40.4ZM163.184 40.4C161.131 40.4 159.291 39.96 157.664 39.08C156.037 38.1733 154.757 36.8667 153.824 35.16C152.917 33.4533 152.464 31.3867 152.464 28.96C152.464 25.3333 153.424 22.5467 155.344 20.6C157.291 18.6267 159.957 17.64 163.344 17.64C165.424 17.64 167.264 18.08 168.864 18.96C170.491 19.8133 171.757 21.0933 172.664 22.8C173.597 24.48 174.064 26.5333 174.064 28.96C174.064 31.3867 173.624 33.4533 172.744 35.16C171.864 36.8667 170.611 38.1733 168.984 39.08C167.384 39.96 165.451 40.4 163.184 40.4ZM163.304 35.28C164.237 35.28 164.984 35.04 165.544 34.56C166.104 34.08 166.517 33.36 166.784 32.4C167.051 31.44 167.184 30.2933 167.184 28.96C167.184 27.6 167.051 26.4667 166.784 25.56C166.517 24.6267 166.091 23.92 165.504 23.44C164.944 22.96 164.197 22.72 163.264 22.72C161.877 22.72 160.877 23.2533 160.264 24.32C159.651 25.3867 159.344 26.9333 159.344 28.96C159.344 30.2933 159.477 31.44 159.744 32.4C160.011 33.36 160.437 34.08 161.024 34.56C161.611 35.04 162.371 35.28 163.304 35.28ZM179.099 40V11.44H188.499C192.153 11.44 194.859 12.2133 196.619 13.76C198.406 15.3067 199.299 17.5067 199.299 20.36C199.299 21.64 199.113 22.8667 198.739 24.04C198.366 25.2133 197.753 26.2667 196.899 27.2C196.073 28.1067 194.953 28.8267 193.539 29.36C192.126 29.8933 190.393 30.16 188.339 30.16H185.979V40H179.099ZM185.979 24.56H187.779C188.686 24.56 189.486 24.44 190.179 24.2C190.899 23.9333 191.446 23.5067 191.819 22.92C192.219 22.3067 192.419 21.52 192.419 20.56C192.419 19.4667 192.086 18.6 191.419 17.96C190.753 17.32 189.713 17 188.299 17H185.979V24.56ZM203.698 40V18.04H208.778L209.818 21.64H210.138C210.778 20.52 211.645 19.5733 212.738 18.8C213.832 18.0267 215.032 17.64 216.338 17.64C216.765 17.64 217.205 17.6667 217.658 17.72C218.112 17.7467 218.458 17.8 218.698 17.88L218.098 24.24C217.805 24.1867 217.458 24.1333 217.058 24.08C216.685 24.0267 216.178 24 215.538 24C214.818 24 214.058 24.1333 213.258 24.4C212.485 24.6667 211.818 25.16 211.258 25.88C210.725 26.6 210.458 27.64 210.458 29V40H203.698ZM222.02 40V18.04H228.78V40H222.02ZM225.42 15.56C224.406 15.56 223.54 15.3467 222.82 14.92C222.126 14.4667 221.78 13.64 221.78 12.44C221.78 11.2133 222.126 10.3867 222.82 9.96C223.54 9.50667 224.406 9.28 225.42 9.28C226.406 9.28 227.26 9.50667 227.98 9.96C228.7 10.3867 229.06 11.2133 229.06 12.44C229.06 13.64 228.7 14.4667 227.98 14.92C227.26 15.3467 226.406 15.56 225.42 15.56ZM244.162 40.4C242.002 40.4 240.108 40 238.482 39.2C236.882 38.4 235.628 37.1733 234.722 35.52C233.842 33.84 233.402 31.7067 233.402 29.12C233.402 26.4267 233.895 24.24 234.882 22.56C235.868 20.88 237.202 19.64 238.882 18.84C240.588 18.04 242.522 17.64 244.682 17.64C245.988 17.64 247.228 17.7867 248.402 18.08C249.575 18.3467 250.642 18.72 251.602 19.2L249.602 24.28C248.748 23.9067 247.922 23.6 247.122 23.36C246.322 23.12 245.508 23 244.682 23C243.775 23 242.988 23.2267 242.322 23.68C241.655 24.1333 241.148 24.8133 240.802 25.72C240.455 26.6 240.282 27.72 240.282 29.08C240.282 30.44 240.455 31.56 240.802 32.44C241.175 33.2933 241.682 33.9333 242.322 34.36C242.988 34.76 243.775 34.96 244.682 34.96C245.775 34.96 246.855 34.8 247.922 34.48C248.988 34.16 249.988 33.72 250.922 33.16V38.6C250.042 39.16 249.055 39.6 247.962 39.92C246.895 40.24 245.628 40.4 244.162 40.4ZM265.855 40.4C263.642 40.4 261.682 40 259.975 39.2C258.269 38.4 256.922 37.1733 255.935 35.52C254.975 33.84 254.495 31.72 254.495 29.16C254.495 26.5467 254.935 24.4 255.815 22.72C256.722 21.0133 257.962 19.7467 259.535 18.92C261.135 18.0667 262.989 17.64 265.095 17.64C267.202 17.64 269.002 18.0133 270.495 18.76C272.015 19.5067 273.175 20.6267 273.975 22.12C274.802 23.6133 275.215 25.4533 275.215 27.64V30.8H261.335C261.389 32.2133 261.855 33.3467 262.735 34.2C263.642 35.0533 264.935 35.48 266.615 35.48C268.002 35.48 269.255 35.3467 270.375 35.08C271.495 34.8133 272.655 34.4 273.855 33.84V38.8C272.789 39.36 271.642 39.76 270.415 40C269.189 40.2667 267.669 40.4 265.855 40.4ZM261.495 26.4H268.975C268.975 25.2533 268.655 24.2933 268.015 23.52C267.402 22.72 266.495 22.32 265.295 22.32C264.229 22.32 263.362 22.6667 262.695 23.36C262.029 24.0267 261.629 25.04 261.495 26.4ZM286.512 40.4C284.966 40.4 283.579 40.3067 282.352 40.12C281.152 39.9333 279.966 39.6 278.792 39.12V33.64C280.072 34.2267 281.406 34.6667 282.792 34.96C284.206 35.2533 285.366 35.4 286.272 35.4C287.339 35.4 288.112 35.2667 288.592 35C289.072 34.7333 289.312 34.36 289.312 33.88C289.312 33.5067 289.179 33.1867 288.912 32.92C288.646 32.6267 288.152 32.32 287.432 32C286.739 31.68 285.752 31.2667 284.472 30.76C283.219 30.2267 282.166 29.6667 281.312 29.08C280.459 28.4933 279.819 27.8 279.392 27C278.966 26.1733 278.752 25.16 278.752 23.96C278.752 21.88 279.566 20.3067 281.192 19.24C282.819 18.1733 284.966 17.64 287.632 17.64C289.072 17.64 290.419 17.8 291.672 18.12C292.926 18.4133 294.192 18.84 295.472 19.4L293.592 23.88C292.552 23.4 291.486 23.0267 290.392 22.76C289.299 22.4667 288.379 22.32 287.632 22.32C286.859 22.32 286.259 22.4267 285.832 22.64C285.406 22.8533 285.192 23.16 285.192 23.56C285.192 23.9067 285.312 24.2133 285.552 24.48C285.819 24.72 286.286 24.9867 286.952 25.28C287.646 25.5733 288.619 25.9733 289.872 26.48C291.179 26.9867 292.259 27.5333 293.112 28.12C293.966 28.7067 294.606 29.4133 295.032 30.24C295.486 31.0667 295.712 32.12 295.712 33.4C295.712 34.7867 295.392 36.0133 294.752 37.08C294.112 38.12 293.112 38.9333 291.752 39.52C290.392 40.1067 288.646 40.4 286.512 40.4Z" fill="white"/>
<mask id="mask0_2_28" style="mask-type:luminance" maskUnits="userSpaceOnUse" x="0" y="9" width="35" height="35">
<path d="M35 9H0V44H35V9Z" fill="white"/>
</mask>
<g mask="url(#mask0_2_28)">
<path d="M19.5234 23.885C18.729 23.885 17.9671 23.6306 17.4053 23.178C16.8436 22.7253 16.528 22.1113 16.528 21.4712C16.528 20.831 16.8436 20.217 17.4053 19.7643C17.9671 19.3117 18.729 19.0574 19.5234 19.0574C22.0383 19.0551 24.4493 18.2491 26.2276 16.8162C28.0058 15.3833 29.0062 13.4404 29.0091 11.4139C29.0091 10.7737 29.3247 10.1597 29.8865 9.70707C30.4481 9.25439 31.2101 9.00008 32.0045 9.00008C32.799 9.00008 33.561 9.25439 34.1226 9.70707C34.6844 10.1597 35 10.7737 35 11.4139C34.9953 14.7203 33.3633 17.8902 30.4619 20.2282C27.5605 22.5662 23.6266 23.8813 19.5234 23.885Z" fill="#EC6C0C"/>
<path d="M2.99554 44C2.20108 44 1.43915 43.7457 0.877379 43.293C0.315605 42.8402 0 42.2264 0 41.5861C0.00461318 38.2797 1.63667 35.1097 4.53809 32.7716C7.43954 30.4336 11.3734 29.1185 15.4766 29.1149C16.271 29.1149 17.0329 29.3692 17.5947 29.8219C18.1564 30.2745 18.472 30.8885 18.472 31.5288C18.472 32.1689 18.1564 32.7829 17.5947 33.2354C17.0329 33.6882 16.271 33.9425 15.4766 33.9425C12.9617 33.9448 10.5507 34.7508 8.77237 36.1837C6.99407 37.6167 5.99375 39.5595 5.99088 41.5861C5.99088 42.2262 5.67531 42.8402 5.11358 43.293C4.55185 43.7457 3.78998 44 2.99554 44Z" fill="#BE3818"/>
<path d="M19.5234 44C18.7333 43.9947 17.9777 43.7381 17.4213 43.286C16.8648 42.834 16.5526 42.2229 16.5526 41.5861C16.5526 40.9495 16.8648 40.3385 17.4213 39.8864C17.9777 39.4343 18.7333 39.1777 19.5234 39.1724C20.7691 39.1724 22.0026 38.9746 23.1534 38.5906C24.3043 38.2065 25.3498 37.6433 26.2307 36.9337C27.1116 36.2238 27.8102 35.3812 28.2869 34.4539C28.7637 33.5264 29.0089 32.5324 29.0089 31.5286C29.0089 30.5248 28.7637 29.5309 28.2869 28.6035C27.8102 27.6762 27.1116 26.8335 26.2307 26.1237C25.3498 25.4139 24.3043 24.8509 23.1534 24.4668C22.0026 24.0827 20.7691 23.8849 19.5234 23.8849C18.729 23.8849 17.9671 23.6306 17.4053 23.178C16.8436 22.7253 16.528 22.1113 16.528 21.4711C16.528 20.831 16.8436 20.217 17.4053 19.7643C17.9671 19.3117 18.729 19.0573 19.5234 19.0573C21.5606 19.0514 23.579 19.3695 25.4632 19.9936C27.3476 20.6177 29.0604 21.5353 30.5033 22.694C31.9464 23.8527 33.0916 25.2295 33.8729 26.7456C34.6541 28.2616 35.0564 29.887 35.0564 31.5286C35.0564 33.1702 34.6541 34.7957 33.8729 36.3117C33.0916 37.8277 31.9464 39.2046 30.5033 40.3632C29.0604 41.522 27.3476 42.4397 25.4632 43.0638C23.579 43.6879 21.5606 44.0059 19.5234 44Z" fill="url(#paint0_linear_2_28)"/>
<path d="M30.2507 20.3944C31.7531 19.2331 32.9485 17.8387 33.7646 16.2954C34.5809 14.752 35.001 13.0915 35 11.4139C35 10.7737 34.6844 10.1597 34.1226 9.70707C33.561 9.25439 32.799 9.00008 32.0047 9.00008C31.2101 9.00008 30.4481 9.25439 29.8865 9.70707C29.3247 10.1597 29.0091 10.7737 29.0091 11.4139C29.0083 12.7123 28.5972 13.9892 27.8143 15.1241C27.0316 16.259 25.9031 17.2145 24.535 17.9006C26.6379 18.3961 28.5863 19.2462 30.2507 20.3944Z" fill="url(#paint1_linear_2_28)"/>
<path d="M15.4766 33.9425C11.372 33.9425 7.43547 32.6285 4.5331 30.2897C1.63071 27.951 0.000167847 24.7788 0.000167847 21.4712C0.000167847 18.1637 1.63071 14.9916 4.5331 12.6527C7.43547 10.3139 11.372 9 15.4766 9C16.271 9 17.0329 9.25431 17.5946 9.70698C18.1564 10.1597 18.472 10.7736 18.472 11.4138C18.472 12.054 18.1564 12.6679 17.5946 13.1206C17.0329 13.5733 16.271 13.8276 15.4766 13.8276C14.2309 13.8276 12.9975 14.0253 11.8466 14.4094C10.6958 14.7936 9.65011 15.3566 8.76928 16.0664C7.88848 16.7761 7.18978 17.6188 6.71309 18.5461C6.23639 19.4735 5.99105 20.4675 5.99105 21.4712C5.99105 22.475 6.23639 23.469 6.71309 24.3963C7.18978 25.3237 7.88848 26.1663 8.76928 26.8762C9.65011 27.5858 10.6958 28.1489 11.8466 28.5331C12.9975 28.9171 14.2309 29.1149 15.4766 29.1149C16.271 29.1149 17.0329 29.3692 17.5946 29.8219C18.1564 30.2745 18.472 30.8885 18.472 31.5286C18.472 32.1689 18.1564 32.7829 17.5946 33.2354C17.0329 33.6882 16.271 33.9425 15.4766 33.9425Z" fill="url(#paint2_linear_2_28)"/>
<path d="M4.7496 32.6054C3.24709 33.7668 2.05174 35.1611 1.23551 36.7045C0.419275 38.2479 -0.000969802 39.9084 7.96427e-05 41.5861C-0.00319221 41.9049 0.071872 42.2208 0.22094 42.516C0.370008 42.8112 0.590133 43.0797 0.86861 43.3059C1.14709 43.5322 1.47841 43.7118 1.84346 43.8343C2.2085 43.9569 2.60006 44.02 2.99552 44.02C3.39099 44.02 3.78255 43.9569 4.1476 43.8343C4.51264 43.7118 4.84396 43.5322 5.12243 43.3059C5.40091 43.0797 5.62103 42.8112 5.7701 42.516C5.91917 42.2208 5.99424 41.9049 5.99096 41.5861C5.99175 40.2877 6.40296 39.0108 7.18579 37.8758C7.9686 36.7408 9.09726 35.7853 10.4653 35.0993C8.36229 34.6037 6.41401 33.7536 4.7496 32.6054Z" fill="#E64A1A"/>
</g>
<defs>
<linearGradient id="paint0_linear_2_28" x1="25.7921" y1="44" x2="25.7921" y2="19.0573" gradientUnits="userSpaceOnUse">
<stop stop-color="#E9592D"/>
<stop offset="1" stop-color="#F39519"/>
</linearGradient>
<linearGradient id="paint1_linear_2_28" x1="27.371" y1="19.2208" x2="34.9638" y2="10.2884" gradientUnits="userSpaceOnUse">
<stop offset="0.005" stop-color="#F39519"/>
<stop offset="0.146" stop-color="#F39519"/>
<stop offset="1" stop-color="#F39519"/>
</linearGradient>
<linearGradient id="paint2_linear_2_28" x1="9.23607" y1="33.9425" x2="9.23607" y2="9" gradientUnits="userSpaceOnUse">
<stop stop-color="#E9592D"/>
<stop offset="1" stop-color="#F39519"/>
</linearGradient>
</defs>
</svg>
