<svg width="317" height="41" viewBox="0 0 317 41" fill="none" xmlns="http://www.w3.org/2000/svg">
<path d="M55.72 32.4C53.56 32.4 51.56 32.0533 49.72 31.36C47.9067 30.64 46.32 29.64 44.96 28.36C43.6267 27.0533 42.5867 25.5333 41.84 23.8C41.0933 22.04 40.72 20.1067 40.72 18C40.72 15.8933 41.0933 13.9733 41.84 12.24C42.5867 10.48 43.64 8.96 45 7.68C46.36 6.37333 47.9467 5.37333 49.76 4.68C51.6 3.96 53.6 3.6 55.76 3.6C58.08 3.6 60.1867 4 62.08 4.8C64 5.57333 65.6133 6.74667 66.92 8.32L63.4 11.64C62.4133 10.5467 61.2933 9.72 60.04 9.16C58.8133 8.6 57.4667 8.32 56 8.32C54.5867 8.32 53.28 8.56 52.08 9.04C50.9067 9.52 49.88 10.1867 49 11.04C48.12 11.8933 47.44 12.92 46.96 14.12C46.48 15.2933 46.24 16.5867 46.24 18C46.24 19.4133 46.48 20.72 46.96 21.92C47.44 23.0933 48.12 24.1067 49 24.96C49.88 25.8133 50.9067 26.48 52.08 26.96C53.28 27.44 54.5867 27.68 56 27.68C57.4667 27.68 58.8133 27.4 60.04 26.84C61.2933 26.28 62.4133 25.44 63.4 24.32L66.92 27.64C65.6133 29.2133 64 30.4 62.08 31.2C60.1867 32 58.0667 32.4 55.72 32.4ZM71.3406 32V10.6H76.3806V16.52L75.7406 14.8C76.354 13.3333 77.354 12.2267 78.7406 11.48C80.154 10.7067 81.874 10.32 83.9006 10.32V15.32C83.6606 15.2933 83.4473 15.2667 83.2606 15.24C83.074 15.2133 82.8873 15.2 82.7006 15.2C80.8606 15.2 79.3806 15.7467 78.2606 16.84C77.1673 17.9067 76.6206 19.52 76.6206 21.68V32H71.3406ZM90.8006 40.04C89.734 40.04 88.6806 39.8667 87.6406 39.52C86.6006 39.1733 85.7206 38.6933 85.0006 38.08L87.0806 34.24C87.5606 34.6933 88.1206 35.0533 88.7606 35.32C89.4006 35.5867 90.054 35.72 90.7206 35.72C91.6006 35.72 92.3206 35.4933 92.8806 35.04C93.4406 34.5867 93.9606 33.84 94.4406 32.8L95.6406 30.04L96.0806 29.44L104.041 10.6H109.121L99.2006 33.64C98.534 35.2667 97.774 36.5467 96.9206 37.48C96.094 38.4133 95.174 39.0667 94.1606 39.44C93.1473 39.84 92.0273 40.04 90.8006 40.04ZM95.0406 32.76L85.4406 10.6H90.8806L98.6406 28.96L95.0406 32.76ZM124.162 32.28C122.402 32.28 120.815 31.88 119.402 31.08C117.989 30.28 116.869 29.08 116.042 27.48C115.242 25.8533 114.842 23.8 114.842 21.32C114.842 18.8133 115.229 16.76 116.002 15.16C116.775 13.5333 117.869 12.32 119.282 11.52C120.695 10.72 122.322 10.32 124.162 10.32C126.215 10.32 128.055 10.7867 129.682 11.72C131.309 12.6267 132.589 13.9067 133.522 15.56C134.455 17.1867 134.922 19.1067 134.922 21.32C134.922 23.5333 134.455 25.4667 133.522 27.12C132.589 28.7467 131.309 30.0133 129.682 30.92C128.055 31.8267 126.215 32.28 124.162 32.28ZM112.122 39.76V10.6H117.162V15.52L117.002 21.36L117.402 27.16V39.76H112.122ZM123.442 27.84C124.615 27.84 125.669 27.5733 126.602 27.04C127.535 26.5067 128.269 25.7467 128.802 24.76C129.362 23.7733 129.642 22.6267 129.642 21.32C129.642 19.96 129.362 18.8 128.802 17.84C128.269 16.8533 127.535 16.0933 126.602 15.56C125.669 15.0267 124.615 14.76 123.442 14.76C122.295 14.76 121.255 15.0267 120.322 15.56C119.389 16.0933 118.642 16.8533 118.082 17.84C117.549 18.8 117.282 19.96 117.282 21.32C117.282 22.6267 117.549 23.7733 118.082 24.76C118.642 25.7467 119.389 26.5067 120.322 27.04C121.255 27.5733 122.295 27.84 123.442 27.84ZM147.783 32.28C145.383 32.28 143.529 31.6667 142.223 30.44C140.916 29.2133 140.263 27.4 140.263 25V5.88H145.543V24.88C145.543 25.8667 145.796 26.64 146.303 27.2C146.809 27.7333 147.529 28 148.463 28C149.529 28 150.436 27.72 151.183 27.16L152.663 30.88C152.049 31.3333 151.303 31.68 150.423 31.92C149.569 32.16 148.689 32.28 147.783 32.28ZM136.823 15V10.84H151.183V15H136.823ZM165.749 32.28C163.536 32.28 161.562 31.8133 159.829 30.88C158.096 29.92 156.722 28.6133 155.709 26.96C154.722 25.3067 154.229 23.4133 154.229 21.28C154.229 19.1467 154.722 17.2667 155.709 15.64C156.722 13.9867 158.082 12.6933 159.789 11.76C161.522 10.8 163.509 10.32 165.749 10.32C167.962 10.32 169.936 10.8 171.669 11.76C173.402 12.6933 174.762 13.9867 175.749 15.64C176.736 17.2667 177.229 19.1467 177.229 21.28C177.229 23.4133 176.736 25.3067 175.749 26.96C174.762 28.6133 173.389 29.92 171.629 30.88C169.896 31.8133 167.936 32.28 165.749 32.28ZM165.749 27.84C166.922 27.84 167.962 27.5733 168.869 27.04C169.802 26.5067 170.536 25.7467 171.069 24.76C171.629 23.7733 171.909 22.6133 171.909 21.28C171.909 19.9467 171.629 18.8 171.069 17.84C170.536 16.8533 169.802 16.0933 168.869 15.56C167.962 15.0267 166.922 14.76 165.749 14.76C164.576 14.76 163.522 15.0267 162.589 15.56C161.656 16.0933 160.909 16.8533 160.349 17.84C159.816 18.8 159.549 19.9467 159.549 21.28C159.549 22.6133 159.816 23.7733 160.349 24.76C160.909 25.7467 161.656 26.5067 162.589 27.04C163.522 27.5733 164.576 27.84 165.749 27.84ZM182.368 32V4H194.008C196.488 4 198.621 4.4 200.408 5.2C202.194 6 203.568 7.14666 204.528 8.64C205.488 10.1333 205.968 11.92 205.968 14C205.968 16.0533 205.488 17.8267 204.528 19.32C203.568 20.8133 202.194 21.96 200.408 22.76C198.621 23.56 196.488 23.96 194.008 23.96H185.408L187.848 21.48V32H182.368ZM187.848 22.04L185.408 19.4H193.768C195.981 19.4 197.648 18.9333 198.768 18C199.888 17.04 200.448 15.7067 200.448 14C200.448 12.2667 199.888 10.9333 198.768 10C197.648 9.04 195.981 8.56 193.768 8.56H185.408L187.848 5.92V22.04ZM210.442 32V10.6H215.482V16.52L214.842 14.8C215.456 13.3333 216.456 12.2267 217.842 11.48C219.256 10.7067 220.976 10.32 223.002 10.32V15.32C222.762 15.2933 222.549 15.2667 222.362 15.24C222.176 15.2133 221.989 15.2 221.802 15.2C219.962 15.2 218.482 15.7467 217.362 16.84C216.269 17.9067 215.722 19.52 215.722 21.68V32H210.442ZM227.161 32V10.6H232.441V32H227.161ZM229.801 7.2C228.814 7.2 228.001 6.90667 227.361 6.32C226.748 5.70667 226.441 4.96 226.441 4.08C226.441 3.2 226.748 2.46667 227.361 1.88C228.001 1.29333 228.814 0.999999 229.801 0.999999C230.788 0.999999 231.588 1.28 232.201 1.84C232.841 2.4 233.161 3.12 233.161 4C233.161 4.90667 232.854 5.66667 232.241 6.28C231.628 6.89333 230.814 7.2 229.801 7.2ZM248.761 32.28C246.494 32.28 244.481 31.8133 242.721 30.88C240.961 29.92 239.574 28.6133 238.561 26.96C237.574 25.3067 237.081 23.4267 237.081 21.32C237.081 19.16 237.574 17.2667 238.561 15.64C239.574 13.9867 240.961 12.6933 242.721 11.76C244.481 10.8 246.494 10.32 248.761 10.32C250.867 10.32 252.721 10.76 254.321 11.64C255.947 12.4933 257.161 13.7467 257.961 15.4L253.961 17.76C253.321 16.7467 252.547 16 251.641 15.52C250.734 15.0133 249.761 14.76 248.721 14.76C247.521 14.76 246.441 15.0267 245.481 15.56C244.547 16.0933 243.801 16.8533 243.241 17.84C242.681 18.8 242.401 19.96 242.401 21.32C242.401 22.6533 242.681 23.8133 243.241 24.8C243.801 25.76 244.547 26.5067 245.481 27.04C246.441 27.5733 247.521 27.84 248.721 27.84C249.761 27.84 250.734 27.6 251.641 27.12C252.547 26.64 253.321 25.88 253.961 24.84L257.961 27.2C257.161 28.8267 255.947 30.08 254.321 30.96C252.721 31.84 250.867 32.28 248.761 32.28ZM272.048 32.28C269.674 32.28 267.581 31.8133 265.768 30.88C263.981 29.92 262.594 28.6133 261.608 26.96C260.621 25.3067 260.128 23.4267 260.128 21.32C260.128 19.1867 260.608 17.2933 261.568 15.64C262.554 13.9867 263.888 12.6933 265.568 11.76C267.248 10.8 269.154 10.32 271.288 10.32C273.368 10.32 275.221 10.7867 276.848 11.72C278.501 12.6267 279.794 13.9067 280.727 15.56C281.688 17.2133 282.168 19.1733 282.168 21.44C282.168 21.6533 282.154 21.9067 282.128 22.2C282.128 22.4667 282.114 22.7067 282.088 22.92H264.368V19.56H279.328L277.248 20.6C277.274 19.4 277.021 18.3467 276.488 17.44C275.981 16.5333 275.274 15.8267 274.368 15.32C273.488 14.7867 272.461 14.52 271.288 14.52C270.114 14.52 269.074 14.7867 268.168 15.32C267.261 15.8267 266.554 16.5467 266.048 17.48C265.541 18.3867 265.288 19.4667 265.288 20.72V21.56C265.288 22.8133 265.568 23.92 266.128 24.88C266.714 25.84 267.528 26.5867 268.568 27.12C269.608 27.6533 270.821 27.92 272.208 27.92C273.381 27.92 274.434 27.7333 275.368 27.36C276.328 26.96 277.168 26.3733 277.888 25.6L280.727 28.8C279.741 29.9467 278.514 30.8133 277.048 31.4C275.608 31.9867 273.941 32.28 272.048 32.28ZM293.608 32.28C291.795 32.28 290.062 32.0533 288.408 31.6C286.755 31.1467 285.448 30.5867 284.488 29.92L286.448 25.96C287.408 26.5733 288.555 27.08 289.888 27.48C291.222 27.88 292.555 28.08 293.888 28.08C295.435 28.08 296.542 27.88 297.208 27.48C297.902 27.0533 298.248 26.4933 298.248 25.8C298.248 25.24 298.008 24.8133 297.528 24.52C297.048 24.2 296.422 23.9733 295.648 23.84C294.875 23.68 294.022 23.5333 293.088 23.4C292.155 23.2667 291.208 23.0933 290.248 22.88C289.315 22.64 288.462 22.3067 287.688 21.88C286.915 21.4267 286.288 20.8267 285.808 20.08C285.328 19.3067 285.088 18.3067 285.088 17.08C285.088 15.72 285.475 14.5467 286.248 13.56C287.022 12.5467 288.115 11.76 289.528 11.2C290.968 10.6133 292.662 10.32 294.608 10.32C296.048 10.32 297.502 10.4933 298.968 10.84C300.462 11.16 301.702 11.6133 302.688 12.2L300.728 16.16C299.715 15.5467 298.688 15.1333 297.648 14.92C296.608 14.68 295.595 14.56 294.608 14.56C293.115 14.56 292.008 14.7733 291.288 15.2C290.568 15.6267 290.208 16.1733 290.208 16.84C290.208 17.4533 290.435 17.92 290.888 18.24C291.368 18.5333 291.995 18.7733 292.768 18.96C293.568 19.1467 294.435 19.3067 295.368 19.44C296.302 19.5733 297.235 19.76 298.168 20C299.102 20.2133 299.955 20.5333 300.728 20.96C301.528 21.3867 302.155 21.9733 302.608 22.72C303.088 23.4667 303.328 24.44 303.328 25.64C303.328 26.9733 302.942 28.1467 302.168 29.16C301.395 30.1467 300.275 30.92 298.808 31.48C297.368 32.0133 295.635 32.28 293.608 32.28Z" fill="white"/>
<mask id="mask0_2_28" style="mask-type:luminance" maskUnits="userSpaceOnUse" x="0" y="0" width="35" height="35">
<path d="M35 0H0V35H35V0Z" fill="white"/>
</mask>
<g mask="url(#mask0_2_28)">
<path d="M19.5234 14.885C18.729 14.885 17.9671 14.6306 17.4053 14.178C16.8436 13.7253 16.528 13.1113 16.528 12.4712C16.528 11.831 16.8436 11.217 17.4053 10.7643C17.9671 10.3117 18.729 10.0574 19.5234 10.0574C22.0383 10.0551 24.4493 9.24913 26.2276 7.8162C28.0058 6.38325 29.0062 4.4404 29.0091 2.41388C29.0091 1.7737 29.3247 1.15974 29.8865 0.707066C30.4481 0.254392 31.2101 8.10623e-05 32.0045 8.10623e-05C32.799 8.10623e-05 33.561 0.254392 34.1226 0.707066C34.6844 1.15974 35 1.7737 35 2.41388C34.9953 5.72031 33.3633 8.89024 30.4619 11.2282C27.5605 13.5662 23.6266 14.8813 19.5234 14.885Z" fill="#EC6C0C"/>
<path d="M2.99554 35C2.20108 35 1.43915 34.7457 0.877379 34.293C0.315605 33.8402 0 33.2264 0 32.5861C0.00461318 29.2797 1.63667 26.1097 4.53809 23.7716C7.43954 21.4336 11.3734 20.1185 15.4766 20.1149C16.271 20.1149 17.0329 20.3692 17.5947 20.8219C18.1564 21.2745 18.472 21.8885 18.472 22.5288C18.472 23.1689 18.1564 23.7829 17.5947 24.2354C17.0329 24.6882 16.271 24.9425 15.4766 24.9425C12.9617 24.9448 10.5507 25.7508 8.77237 27.1837C6.99407 28.6167 5.99375 30.5595 5.99088 32.5861C5.99088 33.2262 5.67531 33.8402 5.11358 34.293C4.55185 34.7457 3.78998 35 2.99554 35Z" fill="#BE3818"/>
<path d="M19.5234 35C18.7333 34.9947 17.9777 34.7381 17.4213 34.286C16.8648 33.834 16.5526 33.2229 16.5526 32.5861C16.5526 31.9495 16.8648 31.3385 17.4213 30.8864C17.9777 30.4343 18.7333 30.1777 19.5234 30.1724C20.7691 30.1724 22.0026 29.9746 23.1534 29.5906C24.3043 29.2065 25.3498 28.6433 26.2307 27.9337C27.1116 27.2238 27.8102 26.3812 28.2869 25.4539C28.7637 24.5264 29.0089 23.5324 29.0089 22.5286C29.0089 21.5248 28.7637 20.5309 28.2869 19.6035C27.8102 18.6762 27.1116 17.8335 26.2307 17.1237C25.3498 16.4139 24.3043 15.8509 23.1534 15.4668C22.0026 15.0827 20.7691 14.8849 19.5234 14.8849C18.729 14.8849 17.9671 14.6306 17.4053 14.178C16.8436 13.7253 16.528 13.1113 16.528 12.4711C16.528 11.831 16.8436 11.217 17.4053 10.7643C17.9671 10.3117 18.729 10.0573 19.5234 10.0573C21.5606 10.0514 23.579 10.3695 25.4632 10.9936C27.3476 11.6177 29.0604 12.5353 30.5033 13.694C31.9464 14.8527 33.0916 16.2295 33.8729 17.7456C34.6541 19.2616 35.0564 20.887 35.0564 22.5286C35.0564 24.1702 34.6541 25.7957 33.8729 27.3117C33.0916 28.8277 31.9464 30.2046 30.5033 31.3632C29.0604 32.522 27.3476 33.4397 25.4632 34.0638C23.579 34.6879 21.5606 35.0059 19.5234 35Z" fill="url(#paint0_linear_2_28)"/>
<path d="M30.2507 11.3944C31.7531 10.2331 32.9485 8.83874 33.7646 7.29539C34.5809 5.75202 35.001 4.09153 35 2.41388C35 1.7737 34.6844 1.15974 34.1226 0.707066C33.561 0.254392 32.799 8.10623e-05 32.0047 8.10623e-05C31.2101 8.10623e-05 30.4481 0.254392 29.8865 0.707066C29.3247 1.15974 29.0091 1.7737 29.0091 2.41388C29.0083 3.71229 28.5972 4.98916 27.8143 6.12405C27.0316 7.25895 25.9031 8.21449 24.535 8.90057C26.6379 9.39608 28.5863 10.2462 30.2507 11.3944Z" fill="url(#paint1_linear_2_28)"/>
<path d="M15.4766 24.9425C11.372 24.9425 7.43547 23.6285 4.5331 21.2897C1.63071 18.951 0.000167847 15.7788 0.000167847 12.4712C0.000167847 9.16365 1.63071 5.99155 4.5331 3.65274C7.43547 1.31393 11.372 0 15.4766 0C16.271 0 17.0329 0.254311 17.5946 0.706984C18.1564 1.15966 18.472 1.77362 18.472 2.4138C18.472 3.05397 18.1564 3.66793 17.5946 4.12061C17.0329 4.57328 16.271 4.82759 15.4766 4.82759C14.2309 4.82759 12.9975 5.02529 11.8466 5.40942C10.6958 5.79356 9.65011 6.35659 8.76928 7.06636C7.88848 7.77615 7.18978 8.61876 6.71309 9.54615C6.23639 10.4735 5.99105 11.4675 5.99105 12.4712C5.99105 13.475 6.23639 14.469 6.71309 15.3963C7.18978 16.3237 7.88848 17.1663 8.76928 17.8762C9.65011 18.5858 10.6958 19.1489 11.8466 19.5331C12.9975 19.9171 14.2309 20.1149 15.4766 20.1149C16.271 20.1149 17.0329 20.3692 17.5946 20.8219C18.1564 21.2745 18.472 21.8885 18.472 22.5286C18.472 23.1689 18.1564 23.7829 17.5946 24.2354C17.0329 24.6882 16.271 24.9425 15.4766 24.9425Z" fill="url(#paint2_linear_2_28)"/>
<path d="M4.7496 23.6054C3.24709 24.7668 2.05174 26.1611 1.23551 27.7045C0.419275 29.2479 -0.000969802 30.9084 7.96427e-05 32.5861C-0.00319221 32.9049 0.071872 33.2208 0.22094 33.516C0.370008 33.8112 0.590133 34.0797 0.86861 34.3059C1.14709 34.5322 1.47841 34.7118 1.84346 34.8343C2.2085 34.9569 2.60006 35.02 2.99552 35.02C3.39099 35.02 3.78255 34.9569 4.1476 34.8343C4.51264 34.7118 4.84396 34.5322 5.12243 34.3059C5.40091 34.0797 5.62103 33.8112 5.7701 33.516C5.91917 33.2208 5.99424 32.9049 5.99096 32.5861C5.99175 31.2877 6.40296 30.0108 7.18579 28.8758C7.9686 27.7408 9.09726 26.7853 10.4653 26.0993C8.36229 25.6037 6.41401 24.7536 4.7496 23.6054Z" fill="#E64A1A"/>
</g>
<defs>
<linearGradient id="paint0_linear_2_28" x1="25.7921" y1="35" x2="25.7921" y2="10.0573" gradientUnits="userSpaceOnUse">
<stop stop-color="#E9592D"/>
<stop offset="1" stop-color="#F39519"/>
</linearGradient>
<linearGradient id="paint1_linear_2_28" x1="27.371" y1="10.2208" x2="34.9638" y2="1.28835" gradientUnits="userSpaceOnUse">
<stop offset="0.005" stop-color="#F39519"/>
<stop offset="0.146" stop-color="#F39519"/>
<stop offset="1" stop-color="#F39519"/>
</linearGradient>
<linearGradient id="paint2_linear_2_28" x1="9.23607" y1="24.9425" x2="9.23607" y2="0" gradientUnits="userSpaceOnUse">
<stop stop-color="#E9592D"/>
<stop offset="1" stop-color="#F39519"/>
</linearGradient>
</defs>
</svg>
